<?xml version="1.0"?>
<svg xmlns="http://www.w3.org/2000/svg" xmlns:xlink="http://www.w3.org/1999/xlink" xmlns:svgjs="http://svgjs.com/svgjs" version="1.1" width="512" height="512" x="0" y="0" viewBox="0 0 512 512" style="enable-background:new 0 0 512 512" xml:space="preserve" class=""><g><g xmlns="http://www.w3.org/2000/svg"><g><g><path d="m31 137h450v60h-450z" fill="#fdffff" data-original="#384949" style="" class=""/></g></g><path d="m256 137h225v60h-225z" fill="#3e3b3b" data-original="#293939" style="" class=""/><g><g><path d="m31 317h450v60h-450z" fill="#fdffff" data-original="#384949" style="" class=""/></g></g><path d="m256 317h225v60h-225z" fill="#3e3b3b" data-original="#293939" style="" class=""/><g><path d="m0 0v152h512v-152z" fill="#ff8d27" data-original="#4a696f" style="" class=""/></g><path d="m256 0h256v152h-256z" fill="#fdffff" data-original="#384949" style="" class=""/><g><g><g><path d="m61 62h30v30h-30z" fill="#3e3b3b" data-original="#9bfcff" style="" class=""/></g></g></g><g><g><path d="m121 62h30v30h-30z" fill="#3e3b3b" data-original="#9bfcff" style="" class=""/></g></g><g><g><g><path d="m181 62h30v30h-30z" fill="#3e3b3b" data-original="#9bfcff" style="" class=""/></g></g></g><g><g><path d="m301 62h150v30h-150z" fill="#3e3b3b" data-original="#293939" style="" class=""/></g></g><g><path d="m0 182v150h512v-150z" fill="#ff8d27" data-original="#4a696f" style="" class=""/></g><path d="m256 182h256v150h-256z" fill="#fdffff" data-original="#384949" style="" class=""/><g><g><g><path d="m61 242h30v30h-30z" fill="#3e3b3b" data-original="#9bfcff" style="" class=""/></g></g></g><g><g><path d="m121 242h30v30h-30z" fill="#3e3b3b" data-original="#9bfcff" style="" class=""/></g></g><g><g><g><path d="m181 242h30v30h-30z" fill="#3e3b3b" data-original="#9bfcff" style="" class=""/></g></g></g><g><g><path d="m301 242h150v30h-150z" fill="#3e3b3b" data-original="#293939" style="" class=""/></g></g><g><path d="m0 362v150h512v-150z" fill="#ff8d27" data-original="#4a696f" style="" class=""/></g><path d="m256 362h256v150h-256z" fill="#fdffff" data-original="#384949" style="" class=""/><g><g><g><path d="m61 422h30v30h-30z" fill="#3e3b3b" data-original="#9bfcff" style="" class=""/></g></g></g><g><g><g><path d="m121 422h30v30h-30z" fill="#3e3b3b" data-original="#9bfcff" style="" class=""/></g></g></g><g><g><g><path d="m181 422h30v30h-30z" fill="#3e3b3b" data-original="#9bfcff" style="" class=""/></g></g></g><g><path d="m301 422h150v30h-150z" fill="#3e3b3b" data-original="#293939" style="" class=""/></g></g></g></svg>
